# xmcd
#
# Track frame offsets: 
#        150
#        11895
#        28037
#        42645
#        56945
#        67157
#        83052
#        94940
#        104347
#        114942
#        130355
#
# Disc length: 1959 seconds
#
# Revision: 4
# Processed by: cddbd v1.5.2PL0 Copyright (c) Steve Scherf et al.
# Submitted via: ExactAudioCopy v0.99pb5
#
DISCID=9e07a50b
DTITLE=Drag The River - Chicken Demos
DYEAR=2004
DGENRE=Indie
TTITLE0=Crocodile
TTITLE1=Until I Say So
TTITLE2=Not Fine
TTITLE3=She Used To Smile
TTITLE4=Confession
TTITLE5=Southbound Train
TTITLE6=Calloused Heart Number One
TTITLE7=Lucky Joe's
TTITLE8=Truth
TTITLE9=Oxes and Horses
TTITLE10=Old Man
EXTD=Track list on back of CD is wrong.
EXTT0=
EXTT1=
EXTT2=
EXTT3=
EXTT4=
EXTT5=
EXTT6=
EXTT7=
EXTT8=
EXTT9=
EXTT10=
PLAYORDER=
